<?xml version="1.0" encoding="utf-8"?>
<!-- Generator: Adobe Illustrator 26.4.0, SVG Export Plug-In . SVG Version: 6.00 Build 0)  -->
<svg version="1.1" id="Layer_2_00000121256379239795567560000002414450642272279218_"
	 xmlns="http://www.w3.org/2000/svg" xmlns:xlink="http://www.w3.org/1999/xlink" x="0px" y="0px" viewBox="0 0 231.4 173.1"
	 style="enable-background:new 0 0 231.4 173.1;" xml:space="preserve">
<style type="text/css">
	.st0{enable-background:new    ;}
	.st1{fill:#4DCEDF;}
	.st2{fill:#3A2C51;}
</style>
<g id="Layer_1-2">
	<g>
		<g class="st0">
			<path class="st1" d="M16.5,158.5c-1.4,0-2.7-0.3-3.9-0.8c-1.2-0.5-2.2-1.2-3.1-2.1c-0.9-0.9-1.6-2-2.1-3.2c-0.5-1.2-0.9-2.6-1-4
				v-18.4c0-0.9,0.3-1.7,1-2.4c0.6-0.7,1.4-1,2.4-1c1,0,1.8,0.3,2.4,1c0.6,0.7,0.9,1.5,0.9,2.4v18c0,0.9,0.3,1.7,1,2.4
				c0.7,0.7,1.5,1,2.4,1c0.9,0,1.7-0.3,2.4-1c0.7-0.7,1-1.4,1-2.4v-18.1c0-0.9,0.3-1.7,1-2.4c0.6-0.7,1.5-1,2.4-1
				c0.9,0,1.7,0.3,2.4,1c0.6,0.7,1,1.5,1,2.4V148c0,0.9,0.3,1.7,1,2.4c0.6,0.7,1.4,1,2.3,1c1,0,1.8-0.3,2.4-1c0.6-0.7,1-1.4,1-2.4
				v-18c0-0.9,0.3-1.7,1-2.4c0.7-0.7,1.5-1,2.4-1c0.9,0,1.7,0.3,2.4,1c0.7,0.7,1,1.5,1,2.4v18.4c0,1.4-0.3,2.7-0.9,3.9
				c-0.5,1.2-1.3,2.3-2.2,3.2c-0.9,0.9-2,1.7-3.2,2.2c-1.2,0.5-2.6,0.8-4,0.8c-1.2,0-2.4-0.2-3.5-0.7c-1.2-0.4-2.2-1.1-3.1-1.9
				c-1,0.8-2,1.4-3.1,1.9C19.1,158.2,17.8,158.4,16.5,158.5z"/>
			<path class="st1" d="M55.1,134.3c1.6,0,3.1,0.3,4.6,1c1.5,0.7,2.8,1.6,3.9,2.7c1.1,1.1,2,2.4,2.7,3.9c0.7,1.5,1,3,1,4.6
				c0,0.9-0.3,1.5-1,2s-1.5,0.7-2.4,0.7H50.6c1.1,1.9,2.6,2.8,4.5,2.8c0.5,0,1,0,1.4-0.2c0.4-0.1,0.7-0.2,1-0.3
				c0.3-0.1,0.6-0.2,0.9-0.3c0.3-0.1,0.6-0.2,1-0.2c0.7,0,1.3,0.2,1.8,0.6c0.5,0.4,0.9,0.8,1.1,1.4c0.2,0.6,0.3,1.1,0.2,1.8
				c-0.1,0.6-0.4,1.2-0.9,1.8c-0.9,0.7-1.9,1.2-3,1.5c-1.1,0.3-2.3,0.4-3.5,0.5c-1.6,0.1-3.1-0.2-4.6-0.9c-1.5-0.7-2.8-1.5-3.9-2.7
				c-1.1-1.1-2-2.4-2.7-3.9c-0.6-1.5-1-3-1-4.6c0-1.6,0.3-3.1,1-4.6c0.7-1.5,1.5-2.8,2.6-3.9c1.1-1.1,2.4-2,3.9-2.7
				C51.9,134.6,53.5,134.3,55.1,134.3z M59.7,143.6c-0.6-1-1.2-1.8-2-2.2c-0.8-0.4-1.6-0.6-2.6-0.6c-1,0-1.8,0.2-2.6,0.6
				c-0.8,0.4-1.4,1.1-2,2.2H59.7z"/>
			<path class="st1" d="M73,126.6c0.4,0,0.9,0,1.2,0.2c0.4,0.2,0.8,0.4,1.1,0.7c0.3,0.3,0.6,0.7,0.7,1.1c0.2,0.4,0.2,0.8,0.2,1.3
				v5.8c1.2-0.6,2.4-1,3.6-1.2c1.2-0.2,2.5-0.2,3.7,0c1.2,0.2,2.4,0.6,3.6,1.1c1.2,0.5,2.2,1.3,3.2,2.2c1.2,1.2,2,2.5,2.6,3.9
				c0.6,1.4,0.9,3,0.9,4.7c0,1.7-0.3,3.2-1,4.7c-0.7,1.5-1.5,2.8-2.6,3.9c-1.1,1.1-2.4,2-3.9,2.6c-1.5,0.6-3,1-4.6,1
				c-1.6,0-3.1-0.3-4.6-1c-1.5-0.7-2.8-1.5-3.9-2.6c-1.1-1.1-2-2.4-2.7-3.9c-0.7-1.5-1-3-1-4.6v-16.8c0-0.4,0.1-0.8,0.3-1.2
				c0.2-0.4,0.4-0.7,0.8-1c0.3-0.3,0.6-0.5,1-0.7C72.2,126.6,72.6,126.5,73,126.6z M76.3,146.4c0,0.8,0.1,1.5,0.4,2.2
				c0.3,0.7,0.7,1.3,1.2,1.8c0.5,0.5,1.1,0.9,1.8,1.2c0.7,0.3,1.4,0.5,2.2,0.5c0.7,0,1.4-0.2,2.1-0.5c0.7-0.3,1.3-0.7,1.8-1.2
				c0.5-0.5,0.9-1.1,1.2-1.8c0.3-0.7,0.4-1.4,0.4-2.2s-0.1-1.5-0.4-2.2c-0.3-0.7-0.7-1.3-1.2-1.8c-0.5-0.5-1.1-0.9-1.8-1.2
				c-0.7-0.3-1.4-0.5-2.1-0.5c-0.8,0-1.5,0.2-2.2,0.5c-0.7,0.3-1.3,0.7-1.8,1.2c-0.5,0.5-0.9,1.1-1.2,1.8
				C76.5,145,76.3,145.7,76.3,146.4z"/>
			<path class="st1" d="M116.8,133.3c-0.8,0-1.5,0.3-2,0.9c-0.6,0.6-0.8,1.3-0.9,2.2c0,0.8,0.3,1.4,0.9,2c0.5,0.5,1.2,0.8,2,0.8h3.4
				c1.2,0,2.4,0.2,3.6,0.8c1.2,0.5,2.2,1.2,3.1,2.1c0.9,0.9,1.6,1.9,2.2,3.1c0.5,1.2,0.8,2.4,0.8,3.8c0,1.3-0.2,2.5-0.8,3.7
				c-0.5,1.2-1.2,2.2-2,3c-0.9,0.9-1.9,1.6-3.1,2.1c-1.2,0.5-2.4,0.8-3.8,0.8h-8.9c-1,0-1.8-0.3-2.5-1c-0.6-0.7-0.9-1.5-0.9-2.4
				c0-0.9,0.3-1.7,1-2.3c0.6-0.7,1.5-1,2.4-1h8.9c0.8,0,1.5-0.3,2.1-0.8c0.6-0.6,0.9-1.2,0.9-2.1c0-0.8-0.3-1.5-0.9-2.1
				c-0.6-0.6-1.3-0.8-2-0.9h-3.5c-1.3,0-2.5-0.3-3.6-0.8c-1.2-0.5-2.2-1.2-3.1-2c-0.9-0.9-1.6-1.9-2.1-3c-0.5-1.2-0.8-2.4-0.8-3.8
				c0-1.2,0.2-2.4,0.8-3.6s1.2-2.2,2.1-3.1c0.9-0.9,1.9-1.6,3.1-2.2c1.2-0.5,2.4-0.8,3.8-0.8h8.9c0.9,0,1.7,0.3,2.3,1
				c0.6,0.6,1,1.5,1,2.4c0,1-0.3,1.8-1,2.4c-0.6,0.6-1.4,1-2.4,1H116.8z"/>
			<path class="st1" d="M136,126.7c0.9,0,1.7,0.3,2.3,1c0.6,0.6,1,1.4,1,2.3v19.8c0,0.7,0.2,1.2,0.7,1.7c0.4,0.5,1,0.7,1.7,0.7
				c0.9,0,1.6,0.3,2.3,0.9c0.7,0.6,1,1.4,1,2.2c0,0.8-0.3,1.5-0.8,2.1c-0.5,0.6-1.3,1-2.1,1.1h-0.7c-1.2,0-2.3-0.2-3.3-0.7
				s-1.9-1.1-2.7-1.9c-0.8-0.8-1.4-1.7-1.9-2.8c-0.5-1.1-0.7-2.2-0.7-3.3v-20c0.1-0.8,0.5-1.5,1-2.1
				C134.4,127,135.1,126.7,136,126.7z"/>
			<path class="st1" d="M150.4,126.8c0.9,0,1.6,0.3,2.2,1c0.6,0.6,0.9,1.4,0.9,2.3c0,0.9-0.3,1.6-0.9,2.3c-0.6,0.6-1.4,1-2.2,1
				c-1,0-1.8-0.3-2.4-0.9c-0.6-0.6-0.9-1.4-0.9-2.5c0-0.9,0.4-1.6,1-2.2C148.7,127.1,149.5,126.8,150.4,126.8z M150.4,134.4
				c0.9,0,1.6,0.3,2.2,1s0.9,1.4,1,2.3v17.7c0,0.9-0.3,1.6-0.9,2.2c-0.6,0.6-1.3,0.9-2.3,1c-0.9,0-1.6-0.3-2.2-0.8
				c-0.6-0.5-1-1.3-1.1-2.2v-18.1c0.1-0.9,0.4-1.6,1-2.2C148.7,134.8,149.5,134.5,150.4,134.4z"/>
			<path class="st1" d="M176.8,126.6c0.9,0,1.6,0.3,2.3,0.9c0.7,0.6,1,1.4,1,2.4v16.5c0,1.6-0.3,3.2-1,4.6c-0.7,1.5-1.5,2.8-2.7,3.9
				c-1.1,1.1-2.4,2-3.9,2.6c-1.5,0.6-3,1-4.6,1s-3.1-0.3-4.6-1c-1.5-0.6-2.8-1.5-3.9-2.6c-1.1-1.1-2-2.4-2.7-3.9c-0.7-1.5-1-3-1-4.7
				c0-1.6,0.3-3.2,1-4.7c0.6-1.5,1.5-2.8,2.6-3.8c1.1-1.1,2.4-2,3.9-2.6c1.5-0.7,3-1,4.7-1c2,0,3.8,0.5,5.5,1.4v-5.8
				c0-0.4,0.1-0.9,0.3-1.2c0.2-0.4,0.4-0.8,0.7-1.1c0.3-0.3,0.7-0.5,1-0.7C175.9,126.7,176.3,126.6,176.8,126.6z M167.9,140.8
				c-0.8,0-1.5,0.2-2.2,0.5c-0.7,0.3-1.3,0.7-1.8,1.2c-0.5,0.5-0.9,1.1-1.2,1.8s-0.5,1.4-0.5,2.1c0,0.8,0.2,1.5,0.5,2.2
				c0.3,0.7,0.7,1.3,1.2,1.8c0.5,0.5,1.1,0.9,1.8,1.2c0.7,0.3,1.4,0.5,2.2,0.5c0.7,0,1.4-0.2,2.1-0.5s1.3-0.7,1.8-1.2
				c0.5-0.5,0.9-1.1,1.2-1.8c0.3-0.7,0.5-1.4,0.5-2.1c0-0.8-0.1-1.5-0.5-2.2c-0.3-0.7-0.7-1.3-1.2-1.8c-0.5-0.5-1.1-0.9-1.8-1.2
				C169.3,140.9,168.6,140.8,167.9,140.8z"/>
			<path class="st1" d="M194.9,134.3c1.6,0,3.1,0.3,4.6,1c1.5,0.7,2.8,1.6,3.9,2.7c1.1,1.1,2,2.4,2.7,3.9c0.7,1.5,1,3,1,4.6
				c0,0.9-0.3,1.5-1,2c-0.7,0.5-1.5,0.7-2.4,0.7h-13.3c1.1,1.9,2.6,2.8,4.5,2.8c0.5,0,1,0,1.4-0.2c0.4-0.1,0.7-0.2,1-0.3
				c0.3-0.1,0.6-0.2,0.9-0.3c0.3-0.1,0.6-0.2,1-0.2c0.7,0,1.3,0.2,1.8,0.6c0.5,0.4,0.9,0.8,1.1,1.4c0.2,0.6,0.3,1.1,0.2,1.8
				c-0.1,0.6-0.4,1.2-0.9,1.8c-0.9,0.7-1.9,1.2-3,1.5c-1.1,0.3-2.3,0.4-3.5,0.5c-1.6,0.1-3.1-0.2-4.6-0.9s-2.8-1.5-3.9-2.7
				c-1.1-1.1-2-2.4-2.7-3.9c-0.6-1.5-1-3-1-4.6c0-1.6,0.3-3.1,1-4.6c0.7-1.5,1.5-2.8,2.6-3.9c1.1-1.1,2.4-2,3.9-2.7
				C191.7,134.6,193.2,134.3,194.9,134.3z M199.4,143.6c-0.6-1-1.2-1.8-2-2.2c-0.8-0.4-1.6-0.6-2.6-0.6c-1,0-1.8,0.2-2.6,0.6
				c-0.8,0.4-1.4,1.1-2,2.2H199.4z"/>
			<path class="st1" d="M212.5,158.5c-0.9,0-1.7-0.3-2.2-0.9c-0.6-0.6-0.9-1.4-1-2.3v-9.2c0-1.6,0.4-3.1,1-4.5
				c0.6-1.4,1.5-2.7,2.6-3.7c1.1-1,2.3-1.9,3.8-2.5c1.5-0.6,3-1,4.6-1c0.9,0,1.7,0.3,2.3,1c0.6,0.6,1,1.4,1,2.3c0,0.9-0.3,1.7-1,2.3
				c-0.6,0.6-1.4,0.9-2.4,1c-0.8,0-1.5,0.1-2.1,0.4c-0.7,0.3-1.2,0.7-1.8,1.2s-0.9,1.1-1.2,1.8c-0.3,0.7-0.5,1.4-0.5,2.2v9.1
				c-0.1,0.9-0.4,1.6-1,2.2C214.2,158.2,213.5,158.5,212.5,158.5z"/>
		</g>
		<path class="st2" d="M228.9,86.9c-0.9,0.9-1.2,2.3-2.2,3.2c-2.4,2.2-5.2,2.8-8.2,1.6c-3-1.1-4.6-3.5-4.7-6.6
			c-0.1-5.2-0.1-10.3-0.1-15.5c0-12.4,0-24.8,0-37.2c0-4,2.6-7,6.1-7.5c4-0.6,7.2,1.4,8.5,5.3c0.1,0.2,0.3,0.3,0.4,0.5L228.9,86.9
			L228.9,86.9z"/>
		<path class="st1" d="M115.4,5c18.1,0,36.2,0,54.3,0c5.9,0,8.7,2.5,8.7,7.8c0,30.4,0,60.9,0,91.3c0,5.4-2.8,7.9-8.8,7.9
			c-36.1,0-72.2,0-108.3,0c-6,0-8.8-2.5-8.8-7.9c0-30.4,0-60.7,0-91.1c0-5.6,2.7-8,8.9-8C79.4,5,97.4,5,115.4,5z"/>
		<path class="st2" d="M27.2,58.5c0-12.9,0-25.7,0-38.5c0-3.1,1.2-5.5,3.9-6.9c2.6-1.4,5.3-1.3,7.8,0.3c2.5,1.6,3.4,4.1,3.4,7
			c0,13.4,0,26.9,0,40.3c0,12.1,0,24.2,0,36.3c0,5.8-5.4,9.4-10.5,7.2c-3.2-1.4-4.5-4-4.5-7.4C27.2,84.1,27.2,71.3,27.2,58.5
			L27.2,58.5z"/>
		<path class="st2" d="M203.6,58.5c0,12.9,0,25.7,0,38.5c0,3.1-1.2,5.5-3.9,6.9c-2.6,1.4-5.3,1.3-7.8-0.3c-2.5-1.6-3.4-4.1-3.4-7
			c0-13.4,0-26.9,0-40.3c0-12.1,0-24.2,0-36.3c0-5.8,5.4-9.4,10.6-7.2c3.2,1.4,4.6,4,4.6,7.4C203.6,33,203.7,45.7,203.6,58.5
			L203.6,58.5z"/>
		<path class="st2" d="M17.1,58.6c0,8.7,0.1,17.4,0,26.1c-0.1,5.6-5.5,9.2-10.6,6.9C3.3,90.2,2,87.6,2,84.2c0-12,0-24,0-36.1
			c0-5.3-0.1-10.6,0-15.9c0.1-4,2.9-7,6.6-7.3c4.1-0.4,7.4,1.9,8.3,5.7c0.2,0.9,0.2,1.9,0.2,2.9C17.1,41.8,17.1,50.2,17.1,58.6
			L17.1,58.6L17.1,58.6z"/>
		<g class="st0">
			<path class="st2" d="M14.7,157.4c-1.4,0-2.7-0.3-3.9-0.8c-1.2-0.5-2.2-1.2-3.1-2.1c-0.9-0.9-1.6-2-2.1-3.2c-0.5-1.2-0.9-2.6-1-4
				v-18.4c0-0.9,0.3-1.7,1-2.4c0.6-0.7,1.4-1,2.4-1c1,0,1.8,0.3,2.4,1c0.6,0.7,0.9,1.5,0.9,2.4v18c0,0.9,0.3,1.7,1,2.4
				c0.7,0.7,1.5,1,2.4,1c0.9,0,1.7-0.3,2.4-1c0.7-0.7,1-1.4,1-2.4v-18.1c0-0.9,0.3-1.7,1-2.4c0.6-0.7,1.5-1,2.4-1
				c0.9,0,1.7,0.3,2.4,1c0.6,0.7,1,1.5,1,2.4v18.1c0,0.9,0.3,1.7,1,2.4c0.6,0.7,1.4,1,2.3,1c1,0,1.8-0.3,2.4-1c0.6-0.7,1-1.4,1-2.4
				v-18c0-0.9,0.3-1.7,1-2.4c0.7-0.7,1.5-1,2.4-1c0.9,0,1.7,0.3,2.4,1c0.7,0.7,1,1.5,1,2.4v18.4c0,1.4-0.3,2.7-0.9,3.9
				c-0.5,1.2-1.3,2.3-2.2,3.2c-0.9,0.9-2,1.7-3.2,2.2c-1.2,0.5-2.6,0.8-4,0.8c-1.2,0-2.4-0.2-3.5-0.7c-1.2-0.4-2.2-1.1-3.1-1.9
				c-1,0.8-2,1.4-3.1,1.9C17.3,157.1,16,157.3,14.7,157.4z"/>
			<path class="st2" d="M53.3,133.2c1.6,0,3.1,0.3,4.6,1c1.5,0.7,2.8,1.6,3.9,2.7c1.1,1.1,2,2.4,2.7,3.9c0.7,1.5,1,3,1,4.6
				c0,0.9-0.3,1.5-1,2S63,148.1,62,148H48.7c1.1,1.9,2.6,2.8,4.5,2.8c0.5,0,1,0,1.4-0.2c0.4-0.1,0.7-0.2,1-0.3
				c0.3-0.1,0.6-0.2,0.9-0.3c0.3-0.1,0.6-0.2,1-0.2c0.7,0,1.3,0.2,1.8,0.6c0.5,0.4,0.9,0.8,1.1,1.4c0.2,0.6,0.3,1.1,0.2,1.8
				c-0.1,0.6-0.4,1.2-0.9,1.8c-0.9,0.7-1.9,1.2-3,1.5c-1.1,0.3-2.3,0.4-3.5,0.5c-1.6,0.1-3.1-0.2-4.6-0.9c-1.5-0.7-2.8-1.5-3.9-2.7
				c-1.1-1.1-2-2.4-2.7-3.9c-0.6-1.5-1-3-1-4.6c0-1.6,0.3-3.1,1-4.6c0.7-1.5,1.5-2.8,2.6-3.9c1.1-1.1,2.4-2,3.9-2.7
				C50.1,133.5,51.7,133.2,53.3,133.2z M57.8,142.5c-0.6-1-1.2-1.8-2-2.2c-0.8-0.4-1.6-0.6-2.6-0.6c-1,0-1.8,0.2-2.6,0.6
				c-0.8,0.4-1.4,1.1-2,2.2H57.8z"/>
			<path class="st2" d="M71.2,125.5c0.4,0,0.9,0,1.2,0.2c0.4,0.2,0.8,0.4,1.1,0.7c0.3,0.3,0.6,0.7,0.7,1.1c0.2,0.4,0.2,0.8,0.2,1.3
				v5.8c1.2-0.6,2.4-1,3.6-1.2c1.2-0.2,2.5-0.2,3.7,0c1.2,0.2,2.4,0.6,3.6,1.1c1.2,0.5,2.2,1.3,3.2,2.2c1.2,1.2,2,2.5,2.6,3.9
				c0.6,1.4,0.9,3,0.9,4.7c0,1.7-0.3,3.2-1,4.7c-0.7,1.5-1.5,2.8-2.6,3.9c-1.1,1.1-2.4,2-3.9,2.6c-1.5,0.6-3,1-4.6,1
				c-1.6,0-3.1-0.3-4.6-1c-1.5-0.7-2.8-1.5-3.9-2.6c-1.1-1.1-2-2.4-2.7-3.9c-0.7-1.5-1-3-1-4.6v-16.8c0-0.4,0.1-0.8,0.3-1.2
				c0.2-0.4,0.4-0.7,0.8-1c0.3-0.3,0.6-0.5,1-0.7C70.4,125.5,70.8,125.4,71.2,125.5z M74.5,145.3c0,0.8,0.1,1.5,0.4,2.2
				c0.3,0.7,0.7,1.3,1.2,1.8c0.5,0.5,1.1,0.9,1.8,1.2c0.7,0.3,1.4,0.5,2.2,0.5c0.7,0,1.4-0.2,2.1-0.5c0.7-0.3,1.3-0.7,1.8-1.2
				c0.5-0.5,0.9-1.1,1.2-1.8c0.3-0.7,0.4-1.4,0.4-2.2s-0.1-1.5-0.4-2.2c-0.3-0.7-0.7-1.3-1.2-1.8c-0.5-0.5-1.1-0.9-1.8-1.2
				c-0.7-0.3-1.4-0.5-2.1-0.5c-0.8,0-1.5,0.2-2.2,0.5c-0.7,0.3-1.3,0.7-1.8,1.2c-0.5,0.5-0.9,1.1-1.2,1.8
				C74.6,143.9,74.5,144.6,74.5,145.3z"/>
			<path class="st2" d="M115,132.2c-0.8,0-1.5,0.3-2,0.9c-0.6,0.6-0.8,1.3-0.9,2.2c0,0.8,0.3,1.4,0.9,2c0.5,0.5,1.2,0.8,2,0.8h3.4
				c1.2,0,2.4,0.2,3.6,0.8s2.2,1.2,3.1,2.1c0.9,0.9,1.6,1.9,2.2,3.1c0.5,1.2,0.8,2.4,0.8,3.8c0,1.3-0.2,2.5-0.8,3.7
				c-0.5,1.2-1.2,2.2-2,3c-0.9,0.9-1.9,1.6-3.1,2.1c-1.2,0.5-2.4,0.8-3.8,0.8h-8.9c-1,0-1.8-0.3-2.5-1c-0.6-0.7-0.9-1.5-0.9-2.4
				c0-0.9,0.3-1.7,1-2.3c0.6-0.7,1.5-1,2.4-1h8.9c0.8,0,1.5-0.3,2.1-0.8c0.6-0.6,0.9-1.2,0.9-2.1c0-0.8-0.3-1.5-0.9-2.1
				c-0.6-0.6-1.3-0.8-2-0.9H115c-1.3,0-2.5-0.3-3.6-0.8c-1.2-0.5-2.2-1.2-3.1-2c-0.9-0.9-1.6-1.9-2.1-3c-0.5-1.2-0.8-2.4-0.8-3.8
				c0-1.2,0.2-2.4,0.8-3.6s1.2-2.2,2.1-3.1c0.9-0.9,1.9-1.6,3.1-2.2c1.2-0.5,2.4-0.8,3.8-0.8h8.9c0.9,0,1.7,0.3,2.3,1
				c0.6,0.6,1,1.5,1,2.4c0,1-0.3,1.8-0.9,2.4c-0.6,0.6-1.4,1-2.4,1H115z"/>
			<path class="st2" d="M134.2,125.6c0.9,0,1.7,0.3,2.3,1s1,1.4,1,2.3v19.8c0,0.7,0.2,1.2,0.7,1.7c0.4,0.5,1,0.7,1.7,0.7
				c0.9,0,1.6,0.3,2.3,0.9c0.6,0.6,1,1.4,1,2.2c0,0.8-0.3,1.5-0.8,2.1c-0.6,0.6-1.3,1-2.1,1.1h-0.7c-1.2,0-2.3-0.2-3.3-0.7
				s-1.9-1.1-2.7-1.9c-0.8-0.8-1.4-1.7-1.9-2.8c-0.5-1.1-0.7-2.2-0.7-3.3v-20c0.1-0.8,0.4-1.5,1-2.1
				C132.5,125.9,133.3,125.6,134.2,125.6z"/>
			<path class="st2" d="M148.5,125.7c0.9,0,1.6,0.3,2.2,1c0.6,0.6,0.9,1.4,0.9,2.3c0,0.9-0.3,1.6-0.9,2.3c-0.6,0.6-1.4,1-2.2,1
				c-1,0-1.8-0.3-2.4-0.9c-0.6-0.6-0.9-1.4-0.9-2.5c0-0.9,0.4-1.6,1-2.2C146.9,126,147.7,125.7,148.5,125.7z M148.5,133.3
				c0.9,0,1.6,0.3,2.2,1c0.6,0.6,0.9,1.4,1,2.3v17.7c0,0.9-0.3,1.6-0.8,2.2c-0.6,0.6-1.3,0.9-2.3,1c-0.9,0-1.6-0.3-2.2-0.8
				c-0.6-0.5-1-1.3-1.1-2.2v-18.1c0.1-0.9,0.4-1.6,1-2.2C146.9,133.7,147.7,133.4,148.5,133.3z"/>
			<path class="st2" d="M174.9,125.5c0.9,0,1.6,0.3,2.3,0.9c0.7,0.6,1,1.4,1,2.4v16.5c0,1.6-0.3,3.2-1,4.6c-0.7,1.5-1.5,2.8-2.7,3.9
				c-1.1,1.1-2.4,2-3.9,2.6c-1.5,0.6-3,1-4.6,1s-3.1-0.3-4.6-1c-1.5-0.6-2.8-1.5-3.9-2.6c-1.1-1.1-2-2.4-2.7-3.9c-0.7-1.5-1-3-1-4.7
				c0-1.6,0.3-3.2,1-4.7c0.7-1.5,1.5-2.8,2.7-3.8c1.1-1.1,2.4-2,3.9-2.6c1.5-0.7,3-1,4.7-1c2,0,3.8,0.5,5.5,1.4v-5.8
				c0-0.4,0.1-0.9,0.3-1.2c0.2-0.4,0.4-0.8,0.7-1.1c0.3-0.3,0.6-0.5,1-0.7S174.5,125.5,174.9,125.5z M166.1,139.7
				c-0.8,0-1.5,0.2-2.2,0.5s-1.3,0.7-1.8,1.2c-0.5,0.5-0.9,1.1-1.2,1.8s-0.5,1.4-0.5,2.1c0,0.8,0.2,1.5,0.5,2.2
				c0.3,0.7,0.7,1.3,1.2,1.8c0.5,0.5,1.1,0.9,1.8,1.2s1.4,0.5,2.2,0.5c0.7,0,1.4-0.2,2.1-0.5c0.7-0.3,1.3-0.7,1.8-1.2
				c0.5-0.5,0.9-1.1,1.2-1.8c0.3-0.7,0.5-1.4,0.5-2.1c0-0.8-0.1-1.5-0.5-2.2c-0.3-0.7-0.7-1.3-1.2-1.8c-0.5-0.5-1.1-0.9-1.8-1.2
				C167.5,139.8,166.8,139.7,166.1,139.7z"/>
			<path class="st2" d="M193,133.2c1.6,0,3.1,0.3,4.6,1c1.5,0.7,2.8,1.6,3.9,2.7c1.1,1.1,2,2.4,2.7,3.9c0.7,1.5,1,3,1,4.6
				c0,0.9-0.3,1.5-1,2c-0.7,0.5-1.5,0.7-2.4,0.7h-13.3c1.1,1.9,2.6,2.8,4.5,2.8c0.5,0,1,0,1.3-0.2c0.4-0.1,0.7-0.2,1-0.3
				c0.3-0.1,0.6-0.2,0.9-0.3c0.3-0.1,0.6-0.2,1-0.2c0.7,0,1.3,0.2,1.8,0.6c0.5,0.4,0.9,0.8,1.2,1.4c0.2,0.6,0.3,1.1,0.2,1.8
				c-0.1,0.6-0.4,1.2-0.9,1.8c-0.9,0.7-1.9,1.2-3,1.5s-2.3,0.4-3.5,0.5c-1.6,0.1-3.1-0.2-4.6-0.9s-2.8-1.5-3.9-2.7
				c-1.1-1.1-2-2.4-2.7-3.9s-1-3-1-4.6c0-1.6,0.3-3.1,1-4.6c0.7-1.5,1.5-2.8,2.6-3.9c1.1-1.1,2.4-2,3.8-2.7
				C189.9,133.5,191.4,133.2,193,133.2z M197.6,142.5c-0.6-1-1.2-1.8-2-2.2c-0.8-0.4-1.6-0.6-2.6-0.6c-1,0-1.8,0.2-2.6,0.6
				c-0.8,0.4-1.4,1.1-2,2.2H197.6z"/>
			<path class="st2" d="M210.7,157.4c-0.9,0-1.7-0.3-2.2-0.9c-0.6-0.6-0.9-1.4-1-2.3V145c0-1.6,0.4-3.1,1-4.5
				c0.6-1.4,1.5-2.7,2.6-3.7c1.1-1,2.3-1.9,3.8-2.5c1.5-0.6,3-1,4.6-1c0.9,0,1.7,0.3,2.3,1c0.6,0.6,1,1.4,1,2.3c0,0.9-0.3,1.7-1,2.3
				c-0.6,0.6-1.4,0.9-2.3,1c-0.8,0-1.5,0.1-2.2,0.4c-0.7,0.3-1.2,0.7-1.8,1.2s-0.9,1.1-1.2,1.8c-0.3,0.7-0.5,1.4-0.5,2.2v9.1
				c-0.1,0.9-0.4,1.6-1,2.2C212.4,157.1,211.7,157.4,210.7,157.4z"/>
		</g>
	</g>
</g>
</svg>
